<?xml version="1.0" encoding="UTF-8"?>
<svg version="1.1" xmlns="http://www.w3.org/2000/svg" width="625" height="625">
<path d="M0 0 C1.43291942 -0.00258688 2.86583811 -0.00560094 4.29875582 -0.0090034 C8.22315228 -0.01703912 12.1475304 -0.01886106 16.0719341 -0.01960087 C20.31010192 -0.02145749 24.54826037 -0.02900801 28.78642273 -0.03573608 C38.04932471 -0.04929694 47.31222235 -0.05534101 56.57513261 -0.05974674 C62.36580067 -0.06251374 68.15646708 -0.066752 73.94713402 -0.07125092 C89.9983869 -0.08344211 106.04963847 -0.09374077 122.10089588 -0.09712601 C123.12753156 -0.09734557 124.15416724 -0.09756514 125.21191309 -0.09779136 C126.24093141 -0.09800964 127.26994973 -0.09822791 128.33015043 -0.09845281 C130.41514321 -0.09889626 132.500136 -0.09934283 134.58512878 -0.09979248 C135.61934543 -0.10001391 136.65356207 -0.10023534 137.71911862 -0.10046348 C154.45733123 -0.10440704 171.19550018 -0.12184822 187.93369595 -0.145152 C205.14300154 -0.168917 222.35228528 -0.18133025 239.56160754 -0.18249393 C249.2139964 -0.18340795 258.86632843 -0.18909107 268.51870155 -0.20731354 C276.74224329 -0.22278437 284.96571062 -0.22779419 293.18926416 -0.21957543 C297.37795582 -0.2156931 301.56649797 -0.21647876 305.75517082 -0.23063278 C350.59827603 -0.37319491 389.50677337 9.64030699 422.44377136 41.64044189 C447.84351878 66.93662959 462.94663126 102.374265 463.05949521 138.21892959 C463.05871517 139.55395788 463.05783642 140.88898611 463.05686951 142.22401428 C463.05945639 143.6569337 463.06247045 145.0898524 463.06587291 146.52277011 C463.07390863 150.44716656 463.07573056 154.37154468 463.07647038 158.29594839 C463.078327 162.53411621 463.08587751 166.77227465 463.09260559 171.01043701 C463.10616644 180.27333899 463.11221051 189.53623663 463.11661625 198.79914689 C463.11938325 204.58981495 463.12362151 210.38048136 463.12812042 216.1711483 C463.14031162 232.22240119 463.15061028 248.27365275 463.15399551 264.32491016 C463.15421508 265.35154584 463.15443465 266.37818152 463.15466087 267.43592737 C463.15487914 268.46494569 463.15509742 269.49396401 463.15532231 270.55416471 C463.15576577 272.63915749 463.15621233 274.72415028 463.15666199 276.80914307 C463.15688342 277.84335971 463.15710485 278.87757636 463.15733299 279.9431329 C463.16127654 296.68134551 463.17871773 313.41951447 463.20202151 330.15771023 C463.22578651 347.36701582 463.23819975 364.57629957 463.23936343 381.78562182 C463.24027746 391.43801069 463.24596057 401.09034271 463.26418304 410.74271584 C463.27965388 418.96625757 463.2846637 427.1897249 463.27644494 435.41327844 C463.27256261 439.6019701 463.27334826 443.79051225 463.28750229 447.9791851 C463.43006442 492.82229032 453.41656251 531.73078765 421.41642761 564.66778564 C396.12023992 590.06753306 360.68260451 605.17064554 324.83793992 605.28350949 C323.50291163 605.28272945 322.16788339 605.28185071 320.83285522 605.28088379 C319.39993581 605.28347067 317.96701711 605.28648473 316.5340994 605.28988719 C312.60970295 605.29792291 308.68532482 605.29974485 304.76092112 605.30048466 C300.5227533 605.30234128 296.28459486 605.30989179 292.0464325 605.31661987 C282.78353051 605.33018073 273.52063287 605.3362248 264.25772262 605.34063053 C258.46705455 605.34339753 252.67638815 605.34763579 246.88572121 605.3521347 C230.83446832 605.3643259 214.78321676 605.37462456 198.73195934 605.3780098 C197.70532366 605.37822936 196.67868799 605.37844893 195.62094213 605.37867515 C194.59192381 605.37889343 193.56290549 605.3791117 192.5027048 605.3793366 C190.41771201 605.37978005 188.33271923 605.38022662 186.24772644 605.38067627 C185.2135098 605.3808977 184.17929315 605.38111913 183.11373661 605.38134727 C166.375524 605.38529083 149.63735504 605.40273201 132.89915927 605.42603579 C115.68985368 605.44980079 98.48056994 605.46221403 81.27124768 605.46337771 C71.61885882 605.46429174 61.9665268 605.46997486 52.31415367 605.48819733 C44.09061194 605.50366816 35.86714461 605.50867798 27.64359107 605.50045922 C23.45489941 605.49657689 19.26635725 605.49736255 15.0776844 605.51151657 C-29.76542081 605.6540787 -68.67391814 595.64057679 -101.61091614 563.64044189 C-127.01066355 538.3442542 -142.11377604 502.90661879 -142.22663999 467.0619542 C-142.22585995 465.72692591 -142.2249812 464.39189767 -142.22401428 463.05686951 C-142.22660116 461.62395009 -142.22961522 460.19103139 -142.23301768 458.75811368 C-142.2410534 454.83371723 -142.24287534 450.90933911 -142.24361515 446.9849354 C-142.24547177 442.74676758 -142.25302229 438.50860914 -142.25975037 434.27044678 C-142.27331122 425.00754479 -142.27935529 415.74464715 -142.28376102 406.4817369 C-142.28652803 400.69106884 -142.29076628 394.90040243 -142.2952652 389.10973549 C-142.30745639 373.0584826 -142.31775505 357.00723104 -142.32114029 340.95597363 C-142.32135986 339.92933795 -142.32157942 338.90270227 -142.32180564 337.84495642 C-142.32202392 336.8159381 -142.3222422 335.78691978 -142.32246709 334.72671908 C-142.32291055 332.64172629 -142.32335711 330.55673351 -142.32380676 328.47174072 C-142.32402819 327.43752408 -142.32424962 326.40330743 -142.32447776 325.33775089 C-142.32842132 308.59953828 -142.3458625 291.86136932 -142.36916628 275.12317356 C-142.39293129 257.91386797 -142.40534453 240.70458422 -142.40650821 223.49526197 C-142.40742223 213.8428731 -142.41310535 204.19054108 -142.43132782 194.53816795 C-142.44679865 186.31462622 -142.45180847 178.09115889 -142.44358972 169.86760535 C-142.43970738 165.67891369 -142.44049304 161.49037154 -142.45464706 157.30169868 C-142.59720919 112.45859347 -132.58370729 73.55009614 -100.58357239 40.61309814 C-73.83821348 13.75824677 -37.59490825 -0.02722877 0 0 Z " fill="#B31E23" transform="translate(152.0835723876953,9.85955810546875)"/>
<path d="M0 0 C0.6815918 0.13390137 1.36318359 0.26780273 2.06542969 0.40576172 C27.18698969 5.49297011 51.60123407 16.51417629 72 32 C72.85335938 32.64324219 73.70671875 33.28648437 74.5859375 33.94921875 C81.40325422 39.25038144 87.71361675 45.08972515 94 51 C94.63679688 51.58265625 95.27359375 52.1653125 95.9296875 52.765625 C114.60859163 70.46142891 129.29646265 95.64790879 137 120 C137.52036755 121.47933059 138.04115094 122.95851503 138.5625 124.4375 C153.05199788 169.21577875 149.97997378 219.77499932 129 262 C128.65807617 262.69319336 128.31615234 263.38638672 127.96386719 264.10058594 C116.13432446 287.87894268 99.10379019 309.76407302 78 326 C77.00484375 326.81082031 76.0096875 327.62164062 74.984375 328.45703125 C59.94683502 340.6139959 41.8717767 349.87734738 23.58984375 356.11328125 C21.54068895 356.81487724 19.52422182 357.61186758 17.5234375 358.44140625 C11.75800513 360.61162813 5.73268583 361.54704722 -0.3125 362.625 C-1.47201172 362.8415625 -2.63152344 363.058125 -3.82617188 363.28125 C-31.74772757 368.36645745 -62.95552308 368.29237569 -90 359 C-91.19109375 358.63003906 -92.3821875 358.26007813 -93.609375 357.87890625 C-122.50665885 348.73609341 -147.12726227 332.80340388 -169 312 C-169.63292969 311.41992188 -170.26585937 310.83984375 -170.91796875 310.2421875 C-196.53119891 286.02825495 -214.0551009 249.32699801 -220 215 C-220.17370117 214.03094727 -220.34740234 213.06189453 -220.52636719 212.06347656 C-222.15020292 202.06863735 -222.39921457 192.23213563 -222.375 182.125 C-222.37445618 181.26860931 -222.37391235 180.41221863 -222.37335205 179.52987671 C-222.33214474 165.37384539 -221.39871332 151.79539039 -218 138 C-217.79101074 137.14003418 -217.58202148 136.28006836 -217.36669922 135.39404297 C-209.08654282 102.55252377 -191.33716279 74.17063289 -168 50 C-167.401875 49.3503125 -166.80375 48.700625 -166.1875 48.03125 C-160.45875801 41.95878349 -153.64007303 37.02144566 -147 32 C-146.15308594 31.35804688 -145.30617188 30.71609375 -144.43359375 30.0546875 C-103.33838052 0.15461696 -49.57489529 -10.15589139 0 0 Z " fill="#E3E3E4" transform="translate(350,131)"/>
<path d="M0 0 C0.66 0 1.32 0 2 0 C2.35602295 0.66717041 2.7120459 1.33434082 3.07885742 2.02172852 C9.90444854 14.79637955 16.79938028 27.51575576 23.96386719 40.10424805 C28.3529646 47.82602799 32.65636253 55.59309885 36.9375 63.375 C41.94626354 72.47702687 46.9783683 81.56474261 52.0625 90.625 C58.77943204 102.59501511 65.44872729 114.59109404 72.10888672 126.59277344 C75.23745052 132.22951968 78.36886077 137.8646841 81.5 143.5 C82.75001382 145.74999232 84.00001382 147.99999232 85.25 150.25 C85.86875 151.36375 86.4875 152.4775 87.125 153.625 C115.7578125 205.1640625 115.7578125 205.1640625 117.42504883 208.19213867 C118.42537002 209.97553566 119.45361572 211.74377224 120.51831055 213.48950195 C126.94673745 224.17617722 124.61986817 236.60409972 121.83276367 248.26953125 C112.20162205 285.71276303 89.59360109 317.69181467 56.2109375 337.61328125 C33.92800471 350.47920771 11.2931972 356.3674467 -14.30517578 356.64208984 C-16.19761658 356.67242261 -18.0900421 356.70372104 -19.98245239 356.73590088 C-26.13653683 356.83418738 -32.29075097 356.90079924 -38.4453125 356.9609375 C-39.49703187 356.97147801 -40.54875125 356.98201852 -41.63234091 356.99287844 C-51.56869852 357.09071173 -61.50509929 357.17544139 -71.44178963 357.23082542 C-84.09592629 357.30231179 -96.74587463 357.43743207 -109.39831173 357.65817487 C-118.33034657 357.8086791 -127.26125048 357.88595368 -136.19451129 357.90969241 C-141.51707265 357.92581192 -146.83481162 357.97356323 -152.15597916 358.10056686 C-184.40739245 358.83576263 -184.40739245 358.83576263 -192.01782227 354.13660812 C-196.51016867 349.8311342 -199.05953389 345.04700277 -201.13977146 339.2353754 C-202.36265166 336.05761951 -204.11540397 333.69453855 -206.171875 330.9921875 C-206.76460205 330.14406494 -207.3573291 329.29594238 -207.96801758 328.42211914 C-208.55607178 327.58156982 -209.14412598 326.74102051 -209.75 325.875 C-217.64281567 314.56180289 -225.39354423 303.15430501 -233.13867188 291.73974609 C-238.59445317 283.70921386 -244.09909044 275.71306984 -249.6640625 267.7578125 C-257.38988937 256.70570678 -265.0063498 245.59627014 -272.4206543 234.33203125 C-276.1646257 228.66473639 -280.05304307 223.13971619 -284.07226562 217.66455078 C-286.99648834 213.62263504 -289.75415677 209.47679542 -292.5 205.3125 C-293.03625 204.50361328 -293.5725 203.69472656 -294.125 202.86132812 C-295.41885904 200.90898725 -296.71051145 198.955229 -298 197 C-297.505 196.01 -297.505 196.01 -297 195 C-296.45214844 195.46148437 -295.90429688 195.92296875 -295.33984375 196.3984375 C-278.16147109 210.53218802 -259.1315938 221.5734786 -237.9152832 228.35913086 C-235.92742324 229.02428477 -233.98392782 229.76942154 -232.03125 230.53125 C-194.29117246 244.82527573 -143.11444104 241.01003087 -106.70556641 224.68432617 C-103.44140574 223.18106105 -100.21955719 221.59608667 -97 220 C-96.32275879 219.66871094 -95.64551758 219.33742188 -94.94775391 218.99609375 C-80.42089642 211.83645258 -66.92051214 203.14456356 -55.11328125 191.9921875 C-53.17866368 190.16842602 -51.18099905 188.49582305 -49.125 186.8125 C-28.29869322 168.58948157 -12.73580789 141.53278313 -3.88671875 115.58984375 C-3.18512276 113.54068895 -2.38813242 111.52422182 -1.55859375 109.5234375 C0.61162813 103.75800513 1.54704722 97.73268583 2.625 91.6875 C2.94984375 89.94823242 2.94984375 89.94823242 3.28125 88.17382812 C8.28763495 60.68506632 6.9251591 33.06459701 0.36279297 5.96386719 C0 4 0 4 0 0 Z " fill="#9E1A1F" transform="translate(490,258)"/>
<path d="M0 0 C1.65696899 -0.01407143 1.65696899 -0.01407143 3.34741211 -0.02842712 C4.53085205 -0.01719315 5.71429199 -0.00595917 6.93359375 0.00561523 C8.15763916 0.00416 9.38168457 0.00270477 10.64282227 0.00120544 C13.2283771 0.00286396 15.81394185 0.01441975 18.39941406 0.03515625 C22.35654648 0.06410257 26.31233856 0.05576435 30.26953125 0.04272461 C32.78255859 0.04896232 35.29558171 0.05735351 37.80859375 0.06811523 C38.99203369 0.0651796 40.17547363 0.06224396 41.39477539 0.05921936 C42.49942139 0.07190353 43.60406738 0.08458771 44.7421875 0.09765625 C45.7108374 0.10305923 46.6794873 0.10846222 47.67749023 0.11402893 C51.16026068 0.61529076 53.86619473 1.99680997 56.37109375 4.50170898 C56.4653497 6.64914447 56.48852023 8.79971924 56.48461914 10.94921875 C56.48476517 11.62236115 56.48491119 12.29550354 56.48506165 12.98904419 C56.48436253 15.22376683 56.47657027 17.45840708 56.46875 19.69311523 C56.46688581 21.2386826 56.46546191 22.78425056 56.46446228 24.32981873 C56.46063715 28.40527975 56.45080692 32.48070535 56.4397583 36.55615234 C56.42954407 40.71182781 56.42496464 44.86750897 56.41992188 49.02319336 C56.40918464 57.18271486 56.39210829 65.34220752 56.37109375 73.50170898 C57.22664856 73.49282654 58.08220337 73.48394409 58.96368408 73.47479248 C67.02682959 73.3946414 75.0898413 73.33374203 83.15329361 73.2944603 C87.29882045 73.27358611 91.44401809 73.24527214 95.58935547 73.19995117 C99.58994532 73.1564865 103.59021856 73.13257061 107.59102631 73.12220001 C109.11728652 73.11480967 110.64352943 73.10037787 112.16965485 73.07878876 C114.30781989 73.04974474 116.44467721 73.04575313 118.58300781 73.04760742 C119.79990295 73.03872498 121.0167981 73.02984253 122.27056885 73.02069092 C125.37109375 73.50170898 125.37109375 73.50170898 127.76101685 75.16816711 C129.76980719 78.07957859 129.88871869 79.77017292 129.92041016 83.29248047 C129.93947418 84.45726425 129.95853821 85.62204803 129.97817993 86.8221283 C129.97635712 88.07635086 129.9745343 89.33057343 129.97265625 90.62280273 C129.9812265 91.91485123 129.98979675 93.20689972 129.99862671 94.5381012 C130.01353294 97.27101059 130.01298297 100.0034032 130.00244141 102.73632812 C129.99085276 106.23183108 130.0247103 109.72521407 130.07113075 113.22036648 C130.10775205 116.56293308 130.10023379 119.90503671 130.09765625 123.24780273 C130.11607574 124.50000107 130.13449524 125.7521994 130.1534729 127.04234314 C130.09913618 132.13657531 130.03995461 135.45454018 127.26464844 139.79956055 C121.84617755 143.14021753 114.49354194 142.1045281 108.34765625 141.98999023 C106.87650762 141.98065545 105.40534336 141.97354248 103.93417358 141.96855164 C100.07701095 141.94953354 96.22080168 141.90047981 92.36401367 141.84503174 C88.42249445 141.79372575 84.48081997 141.77101354 80.5390625 141.74584961 C72.81597335 141.69235404 65.09366754 141.60710676 57.37109375 141.50170898 C57.38774834 142.72200302 57.38774834 142.72200302 57.40473938 143.96694946 C57.50507052 151.64685443 57.58112348 159.32644009 57.63015461 167.00683022 C57.65621001 170.95511538 57.69153201 174.90285745 57.74829102 178.85083008 C57.80275843 182.66341842 57.8325448 186.47548558 57.84547997 190.28843307 C57.8546937 191.74050472 57.87268664 193.19254896 57.89974403 194.64439774 C58.12806015 207.40705581 58.12806015 207.40705581 55.66674805 211.39086914 C50.40479911 214.76110475 45.27522846 214.35812053 39.15234375 214.29858398 C37.21639343 214.30719452 37.21639343 214.30719452 35.24133301 214.315979 C32.51412703 214.32480658 29.78810323 214.31203135 27.06103516 214.28393555 C23.57327439 214.24974481 20.08828331 214.26943848 16.60062408 214.30537033 C13.26347799 214.33232433 9.92706845 214.31342697 6.58984375 214.29858398 C5.34078247 214.31072937 4.09172119 214.32287476 2.80480957 214.33538818 C-2.26879803 214.25300106 -5.59392036 214.16031546 -9.92456055 211.40454102 C-13.30062914 205.93932156 -12.23102568 198.46248426 -12.1171875 192.25952148 C-12.10785297 190.76595242 -12.10073988 189.27236797 -12.0957489 187.77877808 C-12.07672892 183.8624385 -12.02767337 179.94703758 -11.972229 176.03106689 C-11.92092721 172.02922257 -11.89821169 168.02722541 -11.87304688 164.02514648 C-11.81954792 156.18357162 -11.73429797 148.34275732 -11.62890625 140.50170898 C-12.47193298 140.51281204 -13.31495972 140.5239151 -14.18353271 140.53535461 C-22.12891526 140.6355467 -30.07408561 140.71166861 -38.01995468 140.76076984 C-42.10504863 140.78686226 -46.18962057 140.8222524 -50.27441406 140.87890625 C-54.21666847 140.93324087 -58.15842087 140.9631322 -62.10102081 140.9760952 C-63.60498204 140.98533268 -65.10891582 141.00337193 -66.61266327 141.03035927 C-68.71991793 141.06667287 -70.82509989 141.07165396 -72.93261719 141.06933594 C-74.13174744 141.080439 -75.33087769 141.09154205 -76.56634521 141.10298157 C-79.62890625 140.50170898 -79.62890625 140.50170898 -82.01507568 138.32377625 C-83.82199799 135.16405403 -84.13482685 133.3943963 -84.14648438 129.78100586 C-84.15909302 128.65633911 -84.17170166 127.53167236 -84.18469238 126.3729248 C-84.17659546 125.16761108 -84.16849854 123.96229736 -84.16015625 122.72045898 C-84.16398315 121.47421753 -84.16781006 120.22797607 -84.17175293 118.94396973 C-84.17516834 115.63795951 -84.15910121 112.33270441 -84.13671875 109.02679443 C-84.12891269 107.00337741 -84.13669146 104.98065426 -84.15039062 102.95727539 C-84.17510327 99.06550943 -84.17210705 95.17476777 -84.16015625 91.28295898 C-84.16825317 90.07764526 -84.1763501 88.87233154 -84.18469238 87.63049316 C-84.17208374 86.50582642 -84.1594751 85.38115967 -84.14648438 84.22241211 C-84.143302 83.23599731 -84.14011963 82.24958252 -84.13684082 81.23327637 C-83.46223699 77.60539607 -82.34722117 75.98933739 -79.62890625 73.50170898 C-76.56634521 72.86247253 -76.56634521 72.86247253 -72.93261719 72.84228516 C-72.26879028 72.83180145 -71.60496338 72.82131775 -70.92102051 72.81051636 C-68.73463016 72.78179626 -66.54982619 72.78805316 -64.36328125 72.79467773 C-62.84440123 72.78156063 -61.32553865 72.76625635 -59.80670166 72.74885559 C-55.81505132 72.70899312 -51.82385715 72.69881445 -47.83203125 72.69482422 C-43.75636954 72.68549498 -39.68097611 72.64808287 -35.60546875 72.61303711 C-27.61327634 72.54844876 -19.62134744 72.51521908 -11.62890625 72.50170898 C-11.62748123 71.65868225 -11.62605621 70.81565552 -11.62458801 69.94708252 C-11.60675668 62.00133373 -11.56513979 54.05614198 -11.49681568 46.11066055 C-11.46252789 42.02576611 -11.43743302 37.94124634 -11.43334961 33.85620117 C-11.42907033 29.91362918 -11.40064005 25.97190263 -11.35547447 22.02959442 C-11.34248733 20.5257637 -11.33819615 19.02183186 -11.34275246 17.51795197 C-11.34765056 15.41037281 -11.3216099 13.30527236 -11.28833008 11.19799805 C-11.28166824 9.9988678 -11.27500641 8.79973755 -11.2681427 7.56427002 C-10.62890625 4.50170898 -10.62890625 4.50170898 -8.4394989 2.11454773 C-5.30774111 0.31741064 -3.58222762 0.00061452 0 0 Z " fill="#B71F24" transform="translate(289.62890625,205.498291015625)"/>
</svg>
